<svg xmlns="http://www.w3.org/2000/svg" viewBox="0 0 25 25" x="0px" y="0px" stroke="currentColor" fill="currentColor"
     stroke-width="0.5" class="icon w-6 h-6">
    <g>
        <path d="M20.94043,15.9459c0,3.6001-1.85352,6.41992-4.2207,6.41992-2.36035,0-4.21-2.81982-4.21-6.41992a8.31987,8.31987,0,0,1,1.24414-4.564.49972.49972,0,1,1,.832.55371,7.43047,7.43047,0,0,0-1.07617,4.01025c0,2.938,1.46972,5.41992,3.21,5.41992,1.74609,0,3.2207-2.48193,3.2207-5.41992,0-2.3872-.96191-4.52588-2.33984-5.20068A.50008.50008,0,1,1,18.04,9.84678C19.77539,10.69688,20.94043,13.14805,20.94043,15.9459ZM10.5459,15.87608a.501.501,0,0,0-.63477.311c-.47363,1.38037-1.33593,2.23828-2.251,2.23828-1.40918,0-2.60059-2.0332-2.60059-4.43945S6.251,9.54649,7.66016,9.54649a.5.5,0,0,0,0-1c-2.01856,0-3.60059,2.38916-3.60059,5.43945s1.582,5.43945,3.60059,5.43945c1.35546,0,2.58007-1.11669,3.19629-2.91406A.49945.49945,0,0,0,10.5459,15.87608ZM14.36426,10.006l-2.85645,3.40186L9.90137,15.32188c-.00641.00769-.01624.01044-.02307.01764a.49528.49528,0,0,1-.35877.16107l-.00079-.00006-.00019.00006-.0003-.00006c-.01715,0-.03333-.001-.05048-.00238a.46918.46918,0,0,1-.06347-.01972.47.47,0,0,1-.07227-.014L6.22461,14.213a.49983.49983,0,0,1-.22754-.74463L9.73126,7.95964l.10462-1.03A2.44007,2.44007,0,0,1,8.4209,6.296a.49966.49966,0,1,1,.69531-.71777,2.26312,2.26312,0,0,0,1.88574.30615.5.5,0,0,1,.248.96875,4.10474,4.10474,0,0,1-.40918.07056l-.05072.49945,3.73413-.99-.10333-.581a.499.499,0,0,1,.08105-.37256l.7121-1.02533-2.72479-.35162a.50058.50058,0,0,1-.40235-.31738l-.18066-.47217a.49983.49983,0,1,1,.93359-.35742l.07422.19336,6.169.7959.125-.10987a.50031.50031,0,0,1,.66015.752l-.29492.25878a.49951.49951,0,0,1-.33008.124.57119.57119,0,0,1-.06445-.00391l-2.84656-.36737-.89074,1.28192,1.77539,9.98242a.49989.49989,0,1,1-.98438.17481L14.7,7.42118,10.68213,8.48637l-.5025,4.94928.56256-.67041,2.85644-3.40186a.49977.49977,0,0,1,.76563.64258ZM7.17285,13.5167l1.91583.77179.42963-4.23163Z"/>
    </g>
</svg>