<svg xmlns="http://www.w3.org/2000/svg" version="1.1" viewBox="-5.0 -10.0 110.0 115.0"  fill="currentColor" stroke="currentColor"
        stroke-width="2" stroke-linecap="round" stroke-linejoin="round"
        class="icon w-6 h-6">
 <path d="m95.938 15.254c-0.625-1.0742-1.7188-1.7188-2.9688-1.7188h-12.949c-0.87891 0-1.6797 0.44922-2.1094 1.2305-0.44922 0.76172-0.44922 1.6797 0 2.4414l1.0156 1.7773-22.91 13.223-7.3047-12.676c-0.72266-1.25-1.875-2.1289-3.2617-2.5s-2.832-0.17578-4.082 0.52734l-36.055 20.82c-0.78125 0.44922-1.3477 1.1914-1.6016 2.0703-0.23438 0.87891-0.11719 1.7969 0.33203 2.5977l1.7969 3.1055c0.625 1.0938 1.7773 1.6992 2.9688 1.6992 0.58594 0 1.1719-0.15625 1.6992-0.44922l3.0078-1.7383v37.363c0 1.875 1.543 3.418 3.418 3.418h66.094c1.875 0 3.418-1.543 3.418-3.418v-52.09c0.27344 0.097656 0.56641 0.15625 0.87891 0.15625 0.87891 0 1.6797-0.44922 2.1094-1.2109l6.4844-11.23c0.64453-1.0547 0.64453-2.3438 0.019531-3.3984zm-29.902 68.281h-14.57v-39.785c0.41016 0.23438 0.83984 0.42969 1.3086 0.54688 1.3867 0.37109 2.832 0.17578 4.082-0.52734l9.1797-5.293zm-32.07-49.648 8.2422-4.7656 6.3281 10.957v43.438h-14.57zm-17.5 49.16v-39.062l14.57-8.418v47.969h-14.082c-0.27344 0-0.48828-0.21484-0.48828-0.48828zm66.582 0.48828h-14.082v-46.758l14.57-8.418v54.688c0 0.27344-0.21484 0.48828-0.48828 0.48828z"/>
</svg>